<?xml version="1.0" standalone="no"?>
<!DOCTYPE svg PUBLIC "-//W3C//DTD SVG 20010904//EN"
 "http://www.w3.org/TR/2001/REC-SVG-20010904/DTD/svg10.dtd">
<svg version="1.0" xmlns="http://www.w3.org/2000/svg"
 width="75.000000pt" height="75.000000pt" viewBox="0 0 75.000000 75.000000"
 preserveAspectRatio="xMidYMid meet">
<metadata>
Created by potrace 1.11, written by Peter Selinger 2001-2013
</metadata>
<g transform="translate(0.000000,75.000000) scale(0.100000,-0.100000)"
fill="#000000" stroke="none">
<path d="M105 644 c-124 -64 -141 -226 -32 -305 46 -34 57 -36 57 -11 0 9 -14
25 -30 34 -33 19 -69 85 -65 121 1 12 3 30 4 39 2 26 50 77 86 92 41 17 101
10 138 -16 32 -23 65 -80 49 -86 -11 -3 15 -72 28 -72 13 0 40 59 30 65 -6 4
-17 23 -26 43 -19 47 -40 70 -86 93 -45 23 -112 24 -153 3z"/>
<path d="M495 642 c-22 -11 -48 -29 -59 -40 -17 -20 -17 -22 -2 -28 10 -4 26
1 39 13 66 60 165 47 218 -28 62 -86 -7 -219 -114 -219 -54 0 -107 24 -107 49
0 13 -12 27 -30 36 -16 9 -30 14 -31 13 0 -2 -2 -20 -4 -40 -2 -27 1 -35 11
-31 7 2 25 -6 40 -20 81 -76 223 -47 273 55 39 82 21 163 -51 221 -47 38 -126
46 -183 19z"/>
<path d="M225 396 c-51 -66 -46 -163 11 -226 41 -46 88 -64 149 -57 45 4 125
48 125 68 0 6 7 9 15 5 13 -4 15 2 13 34 -2 22 -5 40 -6 40 -2 0 -17 -8 -33
-17 -18 -11 -27 -24 -26 -36 1 -13 -9 -27 -28 -38 -76 -46 -168 -21 -204 55
-31 62 -24 115 20 162 17 18 18 23 5 33 -12 10 -19 6 -41 -23z"/>
</g>
</svg>
